  0
SECTION
  2
HEADER
  9
$ACADVER
  1
AC1015
  9
$ACADMAINTVER
 70
6
  9
$DWGCODEPAGE
  3
ANSI_1252
  9
$INSBASE
 10
0.0
 20
0.0
 30
0.0
  9
$EXTMIN
 10
1e+20
 20
1e+20
 30
1e+20
  9
$EXTMAX
 10
-1e+20
 20
-1e+20
 30
-1e+20
  9
$LIMMIN
 10
0.0
 20
0.0
  9
$LIMMAX
 10
420.0
 20
297.0
  9
$ORTHOMODE
 70
0
  9
$REGENMODE
 70
1
  9
$FILLMODE
 70
1
  9
$QTEXTMODE
 70
0
  9
$MIRRTEXT
 70
1
  9
$LTSCALE
 40
1.0
  9
$ATTMODE
 70
1
  9
$TEXTSIZE
 40
2.5
  9
$TRACEWID
 40
1.0
  9
$TEXTSTYLE
  7
Standard
  9
$CLAYER
  8
0
  9
$CELTYPE
  6
ByLayer
  9
$CECOLOR
 62
256
  9
$CELTSCALE
 40
1.0
  9
$DISPSILH
 70
0
  9
$DIMSCALE
 40
1.0
  9
$DIMASZ
 40
2.5
  9
$DIMEXO
 40
0.625
  9
$DIMDLI
 40
3.75
  9
$DIMRND
 40
0.0
  9
$DIMDLE
 40
0.0
  9
$DIMEXE
 40
1.25
  9
$DIMTP
 40
0.0
  9
$DIMTM
 40
0.0
  9
$DIMTXT
 40
2.5
  9
$DIMCEN
 40
2.5
  9
$DIMTSZ
 40
0.0
  9
$DIMTOL
 70
0
  9
$DIMLIM
 70
0
  9
$DIMTIH
 70
0
  9
$DIMTOH
 70
0
  9
$DIMSE1
 70
0
  9
$DIMSE2
 70
0
  9
$DIMTAD
 70
1
  9
$DIMZIN
 70
8
  9
$DIMBLK
  1

  9
$DIMASO
 70
1
  9
$DIMSHO
 70
1
  9
$DIMPOST
  1

  9
$DIMAPOST
  1

  9
$DIMALT
 70
0
  9
$DIMALTD
 70
3
  9
$DIMALTF
 40
0.03937007874
  9
$DIMLFAC
 40
1.0
  9
$DIMTOFL
 70
1
  9
$DIMTVP
 40
0.0
  9
$DIMTIX
 70
0
  9
$DIMSOXD
 70
0
  9
$DIMSAH
 70
0
  9
$DIMBLK1
  1

  9
$DIMBLK2
  1

  9
$DIMSTYLE
  2
ISO-25
  9
$DIMCLRD
 70
0
  9
$DIMCLRE
 70
0
  9
$DIMCLRT
 70
0
  9
$DIMTFAC
 40
1.0
  9
$DIMGAP
 40
0.625
  9
$DIMJUST
 70
0
  9
$DIMSD1
 70
0
  9
$DIMSD2
 70
0
  9
$DIMTOLJ
 70
0
  9
$DIMTZIN
 70
8
  9
$DIMALTZ
 70
0
  9
$DIMALTTZ
 70
0
  9
$DIMUPT
 70
0
  9
$DIMDEC
 70
2
  9
$DIMTDEC
 70
2
  9
$DIMALTU
 70
2
  9
$DIMALTTD
 70
3
  9
$DIMTXSTY
  7
Standard
  9
$DIMAUNIT
 70
0
  9
$DIMADEC
 70
0
  9
$DIMALTRND
 40
0.0
  9
$DIMAZIN
 70
0
  9
$DIMDSEP
 70
44
  9
$DIMATFIT
 70
3
  9
$DIMFRAC
 70
0
  9
$DIMLDRBLK
  1

  9
$DIMLUNIT
 70
2
  9
$DIMLWD
 70
-2
  9
$DIMLWE
 70
-2
  9
$DIMTMOVE
 70
0
  9
$LUNITS
 70
2
  9
$LUPREC
 70
4
  9
$SKETCHINC
 40
1.0
  9
$FILLETRAD
 40
10.0
  9
$AUNITS
 70
0
  9
$AUPREC
 70
2
  9
$MENU
  1
.
  9
$ELEVATION
 40
0.0
  9
$PELEVATION
 40
0.0
  9
$THICKNESS
 40
0.0
  9
$LIMCHECK
 70
0
  9
$CHAMFERA
 40
0.0
  9
$CHAMFERB
 40
0.0
  9
$CHAMFERC
 40
0.0
  9
$CHAMFERD
 40
0.0
  9
$SKPOLY
 70
0
  9
$TDCREATE
 40
2461316.492152778
  9
$TDUCREATE
 40
2458532.153996898
  9
$TDUPDATE
 40
2461316.492152778
  9
$TDUUPDATE
 40
2458532.1544311
  9
$TDINDWG
 40
0.0
  9
$TDUSRTIMER
 40
0.0
  9
$USRTIMER
 70
1
  9
$ANGBASE
 50
0.0
  9
$ANGDIR
 70
0
  9
$PDMODE
 70
0
  9
$PDSIZE
 40
0.0
  9
$PLINEWID
 40
0.0
  9
$SPLFRAME
 70
0
  9
$SPLINETYPE
 70
6
  9
$SPLINESEGS
 70
8
  9
$HANDSEED
  5
83
  9
$SURFTAB1
 70
6
  9
$SURFTAB2
 70
6
  9
$SURFTYPE
 70
6
  9
$SURFU
 70
6
  9
$SURFV
 70
6
  9
$UCSBASE
  2

  9
$UCSNAME
  2

  9
$UCSORG
 10
0.0
 20
0.0
 30
0.0
  9
$UCSXDIR
 10
1.0
 20
0.0
 30
0.0
  9
$UCSYDIR
 10
0.0
 20
1.0
 30
0.0
  9
$UCSORTHOREF
  2

  9
$UCSORTHOVIEW
 70
0
  9
$UCSORGTOP
 10
0.0
 20
0.0
 30
0.0
  9
$UCSORGBOTTOM
 10
0.0
 20
0.0
 30
0.0
  9
$UCSORGLEFT
 10
0.0
 20
0.0
 30
0.0
  9
$UCSORGRIGHT
 10
0.0
 20
0.0
 30
0.0
  9
$UCSORGFRONT
 10
0.0
 20
0.0
 30
0.0
  9
$UCSORGBACK
 10
0.0
 20
0.0
 30
0.0
  9
$PUCSBASE
  2

  9
$PUCSNAME
  2

  9
$PUCSORG
 10
0.0
 20
0.0
 30
0.0
  9
$PUCSXDIR
 10
1.0
 20
0.0
 30
0.0
  9
$PUCSYDIR
 10
0.0
 20
1.0
 30
0.0
  9
$PUCSORTHOREF
  2

  9
$PUCSORTHOVIEW
 70
0
  9
$PUCSORGTOP
 10
0.0
 20
0.0
 30
0.0
  9
$PUCSORGBOTTOM
 10
0.0
 20
0.0
 30
0.0
  9
$PUCSORGLEFT
 10
0.0
 20
0.0
 30
0.0
  9
$PUCSORGRIGHT
 10
0.0
 20
0.0
 30
0.0
  9
$PUCSORGFRONT
 10
0.0
 20
0.0
 30
0.0
  9
$PUCSORGBACK
 10
0.0
 20
0.0
 30
0.0
  9
$USERI1
 70
0
  9
$USERI2
 70
0
  9
$USERI3
 70
0
  9
$USERI4
 70
0
  9
$USERI5
 70
0
  9
$USERR1
 40
0.0
  9
$USERR2
 40
0.0
  9
$USERR3
 40
0.0
  9
$USERR4
 40
0.0
  9
$USERR5
 40
0.0
  9
$WORLDVIEW
 70
1
  9
$SHADEDGE
 70
3
  9
$SHADEDIF
 70
70
  9
$TILEMODE
 70
1
  9
$MAXACTVP
 70
64
  9
$PINSBASE
 10
0.0
 20
0.0
 30
0.0
  9
$PLIMCHECK
 70
0
  9
$PEXTMIN
 10
1e+20
 20
1e+20
 30
1e+20
  9
$PEXTMAX
 10
-1e+20
 20
-1e+20
 30
-1e+20
  9
$PLIMMIN
 10
0.0
 20
0.0
  9
$PLIMMAX
 10
420.0
 20
297.0
  9
$UNITMODE
 70
0
  9
$VISRETAIN
 70
1
  9
$PLINEGEN
 70
0
  9
$PSLTSCALE
 70
1
  9
$TREEDEPTH
 70
3020
  9
$CMLSTYLE
  2
Standard
  9
$CMLJUST
 70
0
  9
$CMLSCALE
 40
20.0
  9
$PROXYGRAPHICS
 70
1
  9
$MEASUREMENT
 70
1
  9
$CELWEIGHT
370
-1
  9
$ENDCAPS
280
0
  9
$JOINSTYLE
280
0
  9
$LWDISPLAY
290
0
  9
$INSUNITS
 70
4
  9
$HYPERLINKBASE
  1

  9
$STYLESHEET
  1

  9
$XEDIT
290
1
  9
$CEPSNTYPE
380
0
  9
$PSTYLEMODE
290
1
  9
$FINGERPRINTGUID
  2
{2C738E2C-2CE8-4ECB-A1A3-D62FBF1A023B}
  9
$VERSIONGUID
  2
{F0DC43B9-A545-422B-A34E-1BF6FDFEECD1}
  9
$EXTNAMES
290
1
  9
$PSVPSCALE
 40
0.0
  9
$OLESTARTUP
290
0
  0
ENDSEC
  0
SECTION
  2
CLASSES
  0
CLASS
  1
ACDBDICTIONARYWDFLT
  2
AcDbDictionaryWithDefault
  3
ObjectDBX Classes
 90
0
280
0
281
0
  0
CLASS
  1
SUN
  2
AcDbSun
  3
SCENEOE
 90
1153
280
0
281
0
  0
CLASS
  1
VISUALSTYLE
  2
AcDbVisualStyle
  3
ObjectDBX Classes
 90
4095
280
0
281
0
  0
CLASS
  1
MATERIAL
  2
AcDbMaterial
  3
ObjectDBX Classes
 90
1153
280
0
281
0
  0
CLASS
  1
SCALE
  2
AcDbScale
  3
ObjectDBX Classes
 90
1153
280
0
281
0
  0
CLASS
  1
TABLESTYLE
  2
AcDbTableStyle
  3
ObjectDBX Classes
 90
4095
280
0
281
0
  0
CLASS
  1
MLEADERSTYLE
  2
AcDbMLeaderStyle
  3
ACDB_MLEADERSTYLE_CLASS
 90
4095
280
0
281
0
  0
CLASS
  1
DICTIONARYVAR
  2
AcDbDictionaryVar
  3
ObjectDBX Classes
 90
0
280
0
281
0
  0
CLASS
  1
CELLSTYLEMAP
  2
AcDbCellStyleMap
  3
ObjectDBX Classes
 90
1152
280
0
281
0
  0
CLASS
  1
MENTALRAYRENDERSETTINGS
  2
AcDbMentalRayRenderSettings
  3
SCENEOE
 90
1024
280
0
281
0
  0
CLASS
  1
ACDBDETAILVIEWSTYLE
  2
AcDbDetailViewStyle
  3
ObjectDBX Classes
 90
1025
280
0
281
0
  0
CLASS
  1
ACDBSECTIONVIEWSTYLE
  2
AcDbSectionViewStyle
  3
ObjectDBX Classes
 90
1025
280
0
281
0
  0
CLASS
  1
RASTERVARIABLES
  2
AcDbRasterVariables
  3
ISM
 90
0
280
0
281
0
  0
CLASS
  1
ACDBPLACEHOLDER
  2
AcDbPlaceHolder
  3
ObjectDBX Classes
 90
0
280
0
281
0
  0
CLASS
  1
LAYOUT
  2
AcDbLayout
  3
ObjectDBX Classes
 90
0
280
0
281
0
  0
ENDSEC
  0
SECTION
  2
TABLES
  0
TABLE
  2
VPORT
  5
8
330
0
100
AcDbSymbolTable
 70
1
  0
VPORT
  5
23
330
8
100
AcDbSymbolTableRecord
100
AcDbViewportTableRecord
  2
*Active
 70
0
 10
0.0
 20
0.0
 11
1.0
 21
1.0
 12
0.0
 22
0.0
 13
0.0
 23
0.0
 14
0.5
 24
0.5
 15
0.5
 25
0.5
 16
0.0
 26
0.0
 36
1.0
 17
0.0
 27
0.0
 37
0.0
 40
1000.0
 41
1.34
 42
50.0
 43
0.0
 44
0.0
 50
0.0
 51
0.0
 71
0
 72
1000
 73
1
 74
3
 75
0
 76
0
 77
0
 78
0
281
0
 65
0
146
0.0
  0
ENDTAB
  0
TABLE
  2
LTYPE
  5
2
330
0
100
AcDbSymbolTable
 70
3
  0
LTYPE
  5
24
330
2
100
AcDbSymbolTableRecord
100
AcDbLinetypeTableRecord
  2
ByBlock
 70
0
  3

 72
65
 73
0
 40
0.0
  0
LTYPE
  5
25
330
2
100
AcDbSymbolTableRecord
100
AcDbLinetypeTableRecord
  2
ByLayer
 70
0
  3

 72
65
 73
0
 40
0.0
  0
LTYPE
  5
26
330
2
100
AcDbSymbolTableRecord
100
AcDbLinetypeTableRecord
  2
Continuous
 70
0
  3

 72
65
 73
0
 40
0.0
  0
ENDTAB
  0
TABLE
  2
LAYER
  5
1
330
0
100
AcDbSymbolTable
 70
4
  0
LAYER
  5
27
330
1
100
AcDbSymbolTableRecord
100
AcDbLayerTableRecord
  2
0
 70
0
 62
7
  6
Continuous
370
-3
390
13
  0
LAYER
  5
28
330
1
100
AcDbSymbolTableRecord
100
AcDbLayerTableRecord
  2
Defpoints
 70
0
 62
7
  6
Continuous
290
0
370
-3
390
13
  0
LAYER
  5
2F
330
1
100
AcDbSymbolTableRecord
100
AcDbLayerTableRecord
  2
CORTE
 70
0
 62
1
  6
Continuous
370
-3
390
13
  0
LAYER
  5
30
330
1
100
AcDbSymbolTableRecord
100
AcDbLayerTableRecord
  2
GRAVACAO
 70
0
 62
5
  6
Continuous
370
-3
390
13
  0
ENDTAB
  0
TABLE
  2
STYLE
  5
5
330
0
100
AcDbSymbolTable
 70
1
  0
STYLE
  5
29
330
5
100
AcDbSymbolTableRecord
100
AcDbTextStyleTableRecord
  2
Standard
 70
0
 40
0.0
 41
1.0
 50
0.0
 71
0
 42
2.5
  3
txt
  4

  0
ENDTAB
  0
TABLE
  2
VIEW
  5
7
330
0
100
AcDbSymbolTable
 70
0
  0
ENDTAB
  0
TABLE
  2
UCS
  5
6
330
0
100
AcDbSymbolTable
 70
0
  0
ENDTAB
  0
TABLE
  2
APPID
  5
3
330
0
100
AcDbSymbolTable
 70
3
  0
APPID
  5
2A
330
3
100
AcDbSymbolTableRecord
100
AcDbRegAppTableRecord
  2
ACAD
 70
0
  0
APPID
  5
80
330
3
100
AcDbSymbolTableRecord
100
AcDbRegAppTableRecord
  2
HATCHBACKGROUNDCOLOR
 70
0
  0
APPID
  5
81
330
3
100
AcDbSymbolTableRecord
100
AcDbRegAppTableRecord
  2
EZDXF
 70
0
  0
ENDTAB
  0
TABLE
  2
DIMSTYLE
  5
4
330
0
100
AcDbSymbolTable
 70
1
100
AcDbDimStyleTable
  0
DIMSTYLE
105
2B
330
4
100
AcDbSymbolTableRecord
100
AcDbDimStyleTableRecord
  2
Standard
 70
0
  3

  4

 40
1.0
 41
2.5
 42
0.625
 43
3.75
 44
1.25
 45
0.0
 46
0.0
 47
0.0
 48
0.0
140
2.5
141
2.5
142
0.0
143
0.03937007874
144
1.0
145
0.0
146
1.0
147
0.625
148
0.0
 71
0
 72
0
 73
0
 74
0
 75
0
 76
0
 77
1
 78
8
 79
3
170
0
171
3
172
1
173
0
174
0
175
0
176
0
177
0
178
0
179
2
271
2
272
2
273
2
274
3
275
0
276
0
277
2
278
44
279
0
280
0
281
0
282
0
283
0
284
8
285
0
286
0
288
0
289
3
371
-2
372
-2
  0
ENDTAB
  0
TABLE
  2
BLOCK_RECORD
  5
9
330
0
100
AcDbSymbolTable
 70
2
  0
BLOCK_RECORD
  5
17
330
9
100
AcDbSymbolTableRecord
100
AcDbBlockTableRecord
  2
*Model_Space
340
1A
  0
BLOCK_RECORD
  5
1B
330
9
100
AcDbSymbolTableRecord
100
AcDbBlockTableRecord
  2
*Paper_Space
340
1E
  0
ENDTAB
  0
ENDSEC
  0
SECTION
  2
BLOCKS
  0
BLOCK
  5
18
330
17
100
AcDbEntity
  8
0
100
AcDbBlockBegin
  2
*Model_Space
 70
0
 10
0.0
 20
0.0
 30
0.0
  3
*Model_Space
  1

  0
ENDBLK
  5
19
330
17
100
AcDbEntity
  8
0
100
AcDbBlockEnd
  0
BLOCK
  5
1C
330
1B
100
AcDbEntity
  8
0
100
AcDbBlockBegin
  2
*Paper_Space
 70
0
 10
0.0
 20
0.0
 30
0.0
  3
*Paper_Space
  1

  0
ENDBLK
  5
1D
330
1B
100
AcDbEntity
  8
0
100
AcDbBlockEnd
  0
ENDSEC
  0
SECTION
  2
ENTITIES
  0
ARC
  5
31
330
17
100
AcDbEntity
  8
CORTE
100
AcDbCircle
 10
4.182803953736514
 20
-9.49978489554666
 30
0.0
 40
80.0
100
AcDbArc
 50
110.0
 51
250.0
  0
ARC
  5
32
330
17
100
AcDbEntity
  8
CORTE
100
AcDbCircle
 10
4.182803953736514
 20
-9.49978489554666
 30
0.0
 40
60.0
100
AcDbArc
 50
110.0
 51
250.0
  0
LINE
  5
33
330
17
100
AcDbEntity
  8
CORTE
100
AcDbLine
 10
-16.33840464580361
 20
46.88177235160784
 30
0.0
 11
-23.178807512316983
 21
65.67562476732601
 31
0.0
  0
LINE
  5
34
330
17
100
AcDbEntity
  8
CORTE
100
AcDbLine
 10
-16.3384046458036
 20
-65.88134214270116
 30
0.0
 11
-23.17880751231697
 21
-84.67519455841935
 31
0.0
  0
LWPOLYLINE
  5
35
330
17
100
AcDbEntity
  8
CORTE
100
AcDbPolyline
 90
4
 70
1
 10
297.522165276977
 20
20.152370036556373
 42
0.7002075382097097
 10
147.17134595123161
 20
20.152370036556388
 10
165.9651983669498
 20
13.311967170043008
 42
-0.7002075382097097
 10
278.7283128612588
 20
13.311967170043001
  0
ARC
  5
36
330
17
100
AcDbEntity
  8
CORTE
100
AcDbCircle
 10
465.30098462268734
 20
7.843591354096908
 30
0.0
 40
80.0
100
AcDbArc
 50
20.0
 51
160.0
  0
ARC
  5
37
330
17
100
AcDbEntity
  8
CORTE
100
AcDbCircle
 10
465.30098462268734
 20
7.843591354096908
 30
0.0
 40
60.0
100
AcDbArc
 50
20.0
 51
160.0
  0
LINE
  5
38
330
17
100
AcDbEntity
  8
CORTE
100
AcDbLine
 10
521.6825418698419
 20
28.364799953637032
 30
0.0
 11
540.47639428556
 21
35.205202820150404
 31
0.0
  0
LINE
  5
39
330
17
100
AcDbEntity
  8
CORTE
100
AcDbLine
 10
408.91942737553285
 20
28.36479995363704
 30
0.0
 11
390.1255749598147
 21
35.20520282015042
 31
0.0
  0
LWPOLYLINE
  5
3A
330
17
100
AcDbEntity
  8
CORTE
100
AcDbPolyline
 90
4
 70
1
 10
767.8901850363438
 20
17.99726505568917
 42
0.7002075382097097
 10
617.5393657105985
 20
17.997265055689184
 10
636.3332181263166
 20
11.156862189175802
 42
-0.7002075382097097
 10
749.0963326206257
 20
11.156862189175795
  0
ARC
  5
3B
330
17
100
AcDbEntity
  8
CORTE
100
AcDbCircle
 10
911.5591392441081
 20
0.10710576206724731
 30
0.0
 40
80.0
100
AcDbArc
 50
20.0
 51
160.0
  0
ARC
  5
3C
330
17
100
AcDbEntity
  8
CORTE
100
AcDbCircle
 10
911.5591392441081
 20
0.10710576206724731
 30
0.0
 40
60.0
100
AcDbArc
 50
20.0
 51
160.0
  0
LINE
  5
3D
330
17
100
AcDbEntity
  8
CORTE
100
AcDbLine
 10
967.9406964912627
 20
20.628314361607373
 30
0.0
 11
986.7345489069808
 21
27.468717228120745
 31
0.0
  0
LINE
  5
3E
330
17
100
AcDbEntity
  8
CORTE
100
AcDbLine
 10
855.1775819969536
 20
20.62831436160738
 30
0.0
 11
836.3837295812355
 21
27.46871722812076
 31
0.0
  0
LWPOLYLINE
  5
3F
330
17
100
AcDbEntity
  8
CORTE
100
AcDbPolyline
 90
4
 70
1
 10
-59.44620356135985
 20
152.89738348352492
 42
0.7002075382097097
 10
81.8373518881584
 20
204.32039225844804
 10
61.83735188815839
 20
204.32039225844804
 42
-0.7002075382097097
 10
-44.12531469898029
 20
165.75313567725573
  0
ARC
  5
40
330
17
100
AcDbEntity
  8
CORTE
100
AcDbCircle
 10
221.6132186612209
 20
201.78531367751816
 30
0.0
 40
80.0
100
AcDbArc
 50
20.0
 51
160.0
  0
ARC
  5
41
330
17
100
AcDbEntity
  8
CORTE
100
AcDbCircle
 10
221.6132186612209
 20
201.78531367751816
 30
0.0
 40
60.0
100
AcDbArc
 50
20.0
 51
160.0
  0
LINE
  5
42
330
17
100
AcDbEntity
  8
CORTE
100
AcDbLine
 10
277.9947759083754
 20
222.3065222770583
 30
0.0
 11
296.78862832409357
 21
229.14692514357165
 31
0.0
  0
LINE
  5
43
330
17
100
AcDbEntity
  8
CORTE
100
AcDbLine
 10
165.23166141406642
 20
222.3065222770583
 30
0.0
 11
146.43780899834826
 21
229.14692514357168
 31
0.0
  0
LWPOLYLINE
  5
44
330
17
100
AcDbEntity
  8
CORTE
100
AcDbPolyline
 90
4
 70
1
 10
406.48066556437476
 20
141.77017755261465
 42
0.7002075382097097
 10
547.764221013893
 20
193.19318632753777
 10
527.764221013893
 20
193.19318632753777
 42
-0.7002075382097097
 10
421.8015544267543
 20
154.62592974634543
  0
ARC
  5
45
330
17
100
AcDbEntity
  8
CORTE
100
AcDbCircle
 10
685.2075154955397
 20
193.10958999623563
 30
0.0
 40
80.0
100
AcDbArc
 50
110.0
 51
250.0
  0
ARC
  5
46
330
17
100
AcDbEntity
  8
CORTE
100
AcDbCircle
 10
685.2075154955397
 20
193.10958999623563
 30
0.0
 40
60.0
100
AcDbArc
 50
110.0
 51
250.0
  0
LINE
  5
47
330
17
100
AcDbEntity
  8
CORTE
100
AcDbLine
 10
664.6863068959996
 20
249.49114724339012
 30
0.0
 11
657.8459040294862
 21
268.2849996591083
 31
0.0
  0
LINE
  5
48
330
17
100
AcDbEntity
  8
CORTE
100
AcDbLine
 10
664.6863068959996
 20
136.72803274908114
 30
0.0
 11
657.8459040294863
 21
117.93418033336295
 31
0.0
  0
LWPOLYLINE
  5
49
330
17
100
AcDbEntity
  8
CORTE
100
AcDbPolyline
 90
4
 70
1
 10
880.704696829542
 20
272.7739556756194
 42
0.7002075382097097
 10
880.7046968295421
 20
122.42313634987406
 10
887.5450996960553
 20
141.21698876559225
 42
-0.7002075382097097
 10
887.5450996960553
 20
253.98010325990123
  0
ARC
  5
4A
330
17
100
AcDbEntity
  8
CORTE
100
AcDbCircle
 10
10.424830990423793
 20
402.07452062733785
 30
0.0
 40
80.0
100
AcDbArc
 50
20.0
 51
160.0
  0
ARC
  5
4B
330
17
100
AcDbEntity
  8
CORTE
100
AcDbCircle
 10
10.424830990423793
 20
402.07452062733785
 30
0.0
 40
60.0
100
AcDbArc
 50
20.0
 51
160.0
  0
LINE
  5
4C
330
17
100
AcDbEntity
  8
CORTE
100
AcDbLine
 10
66.80638823757829
 20
422.59572922687795
 30
0.0
 11
85.60024065329648
 21
429.43613209339134
 31
0.0
  0
LINE
  5
4D
330
17
100
AcDbEntity
  8
CORTE
100
AcDbLine
 10
-45.956726256730704
 20
422.595729226878
 30
0.0
 11
-64.75057867244888
 21
429.43613209339134
 31
0.0
  0
LWPOLYLINE
  5
4E
330
17
100
AcDbEntity
  8
CORTE
100
AcDbPolyline
 90
4
 70
1
 10
175.60839815129629
 20
349.3015530541709
 42
0.7002075382097097
 10
316.89195360081453
 20
400.724561829094
 10
296.89195360081453
 20
400.724561829094
 42
-0.7002075382097097
 10
190.92928701367586
 20
362.15730524790166
  0
ARC
  5
4F
330
17
100
AcDbEntity
  8
CORTE
100
AcDbCircle
 10
447.36400594235374
 20
395.8635656281419
 30
0.0
 40
80.0
100
AcDbArc
 50
110.0
 51
250.0
  0
ARC
  5
50
330
17
100
AcDbEntity
  8
CORTE
100
AcDbCircle
 10
447.36400594235374
 20
395.8635656281419
 30
0.0
 40
60.0
100
AcDbArc
 50
110.0
 51
250.0
  0
LINE
  5
51
330
17
100
AcDbEntity
  8
CORTE
100
AcDbLine
 10
426.84279734281364
 20
452.2451228752964
 30
0.0
 11
420.00239447630025
 21
471.0389752910146
 31
0.0
  0
LINE
  5
52
330
17
100
AcDbEntity
  8
CORTE
100
AcDbLine
 10
426.84279734281364
 20
339.4820083809874
 30
0.0
 11
420.00239447630025
 21
320.6881559652692
 31
0.0
  0
LWPOLYLINE
  5
53
330
17
100
AcDbEntity
  8
CORTE
100
AcDbPolyline
 90
4
 70
1
 10
767.4959740205755
 20
431.453048190352
 42
0.7002075382097097
 10
617.1451546948302
 20
431.453048190352
 10
635.9390071105483
 20
424.6126453238386
 42
-0.7002075382097097
 10
748.7021216048574
 20
424.6126453238386
  0
ARC
  5
54
330
17
100
AcDbEntity
  8
CORTE
100
AcDbCircle
 10
924.8378995570313
 20
405.46136681577383
 30
0.0
 40
80.0
100
AcDbArc
 50
20.0
 51
160.0
  0
ARC
  5
55
330
17
100
AcDbEntity
  8
CORTE
100
AcDbCircle
 10
924.8378995570313
 20
405.46136681577383
 30
0.0
 40
60.0
100
AcDbArc
 50
20.0
 51
160.0
  0
LINE
  5
56
330
17
100
AcDbEntity
  8
CORTE
100
AcDbLine
 10
981.2194568041858
 20
425.98257541531393
 30
0.0
 11
1000.0133092199039
 21
432.8229782818273
 31
0.0
  0
LINE
  5
57
330
17
100
AcDbEntity
  8
CORTE
100
AcDbLine
 10
868.4563423098767
 20
425.98257541531393
 30
0.0
 11
849.6624898941586
 21
432.8229782818273
 31
0.0
  0
LWPOLYLINE
  5
58
330
17
100
AcDbEntity
  8
CORTE
100
AcDbPolyline
 90
4
 70
1
 10
0.0
 20
700.0
 10
160.0
 20
700.0
 10
160.0
 20
800.0
 10
0.0
 20
800.0
  0
LWPOLYLINE
  5
59
330
17
100
AcDbEntity
  8
CORTE
100
AcDbPolyline
 90
4
 70
1
 10
25.0
 20
715.0
 10
45.0
 20
715.0
 42
1.0
 10
45.0
 20
721.0
 10
25.0
 20
721.0
 42
1.0
  0
LWPOLYLINE
  5
5A
330
17
100
AcDbEntity
  8
CORTE
100
AcDbPolyline
 90
4
 70
1
 10
75.0
 20
715.0
 10
95.0
 20
715.0
 42
1.0
 10
95.0
 20
721.0
 10
75.0
 20
721.0
 42
1.0
  0
LWPOLYLINE
  5
5B
330
17
100
AcDbEntity
  8
CORTE
100
AcDbPolyline
 90
4
 70
1
 10
125.0
 20
715.0
 10
145.0
 20
715.0
 42
1.0
 10
145.0
 20
721.0
 10
125.0
 20
721.0
 42
1.0
  0
CIRCLE
  5
5C
330
17
100
AcDbEntity
  8
CORTE
100
AcDbCircle
 10
80.0
 20
765.0
 30
0.0
 40
20.0
  0
TEXT
  5
5D
330
17
100
AcDbEntity
  8
GRAVACAO
100
AcDbText
 10
10.0
 20
785.0
 30
0.0
 40
6.0
  1
LAB MAKER
 11
10.0
 21
785.0
 31
0.0
100
AcDbText
  0
LINE
  5
5E
330
17
100
AcDbEntity
  8
GRAVACAO
100
AcDbLine
 10
10.0
 20
782.0
 30
0.0
 11
70.0
 21
782.0
 31
0.0
  0
LWPOLYLINE
  5
5F
330
17
100
AcDbEntity
  8
CORTE
100
AcDbPolyline
 90
4
 70
1
 10
250.0
 20
750.0
 10
410.0
 20
750.0
 10
410.0
 20
850.0
 10
250.0
 20
850.0
  0
LWPOLYLINE
  5
60
330
17
100
AcDbEntity
  8
CORTE
100
AcDbPolyline
 90
4
 70
1
 10
275.0
 20
765.0
 10
295.0
 20
765.0
 42
1.0
 10
295.0
 20
771.0
 10
275.0
 20
771.0
 42
1.0
  0
LWPOLYLINE
  5
61
330
17
100
AcDbEntity
  8
CORTE
100
AcDbPolyline
 90
4
 70
1
 10
325.0
 20
765.0
 10
345.0
 20
765.0
 42
1.0
 10
345.0
 20
771.0
 10
325.0
 20
771.0
 42
1.0
  0
LWPOLYLINE
  5
62
330
17
100
AcDbEntity
  8
CORTE
100
AcDbPolyline
 90
4
 70
1
 10
375.0
 20
765.0
 10
395.0
 20
765.0
 42
1.0
 10
395.0
 20
771.0
 10
375.0
 20
771.0
 42
1.0
  0
CIRCLE
  5
63
330
17
100
AcDbEntity
  8
CORTE
100
AcDbCircle
 10
330.0
 20
815.0
 30
0.0
 40
20.0
  0
TEXT
  5
64
330
17
100
AcDbEntity
  8
GRAVACAO
100
AcDbText
 10
260.0
 20
835.0
 30
0.0
 40
6.0
  1
LAB MAKER
 11
260.0
 21
835.0
 31
0.0
100
AcDbText
  0
LINE
  5
65
330
17
100
AcDbEntity
  8
GRAVACAO
100
AcDbLine
 10
260.0
 20
832.0
 30
0.0
 11
320.0
 21
832.0
 31
0.0
  0
LWPOLYLINE
  5
66
330
17
100
AcDbEntity
  8
CORTE
100
AcDbPolyline
 90
4
 70
1
 10
500.0
 20
700.0
 10
610.0
 20
700.0
 10
610.0
 20
770.0
 10
500.0
 20
770.0
  0
CIRCLE
  5
67
330
17
100
AcDbEntity
  8
CORTE
100
AcDbCircle
 10
515.0
 20
715.0
 30
0.0
 40
3.0
  0
CIRCLE
  5
68
330
17
100
AcDbEntity
  8
CORTE
100
AcDbCircle
 10
595.0
 20
715.0
 30
0.0
 40
3.0
  0
LWPOLYLINE
  5
69
330
17
100
AcDbEntity
  8
CORTE
100
AcDbPolyline
 90
4
 70
1
 10
630.0
 20
700.0
 10
740.0
 20
700.0
 10
740.0
 20
770.0
 10
630.0
 20
770.0
  0
CIRCLE
  5
6A
330
17
100
AcDbEntity
  8
CORTE
100
AcDbCircle
 10
645.0
 20
715.0
 30
0.0
 40
3.0
  0
CIRCLE
  5
6B
330
17
100
AcDbEntity
  8
CORTE
100
AcDbCircle
 10
725.0
 20
715.0
 30
0.0
 40
3.0
  0
LWPOLYLINE
  5
6C
330
17
100
AcDbEntity
  8
CORTE
100
AcDbPolyline
 90
4
 70
1
 10
760.0
 20
700.0
 10
870.0
 20
700.0
 10
870.0
 20
770.0
 10
760.0
 20
770.0
  0
CIRCLE
  5
6D
330
17
100
AcDbEntity
  8
CORTE
100
AcDbCircle
 10
775.0
 20
715.0
 30
0.0
 40
3.0
  0
CIRCLE
  5
6E
330
17
100
AcDbEntity
  8
CORTE
100
AcDbCircle
 10
855.0
 20
715.0
 30
0.0
 40
3.0
  0
LWPOLYLINE
  5
6F
330
17
100
AcDbEntity
  8
CORTE
100
AcDbPolyline
 90
4
 70
1
 10
890.0
 20
700.0
 10
1000.0
 20
700.0
 10
1000.0
 20
770.0
 10
890.0
 20
770.0
  0
CIRCLE
  5
70
330
17
100
AcDbEntity
  8
CORTE
100
AcDbCircle
 10
905.0
 20
715.0
 30
0.0
 40
3.0
  0
CIRCLE
  5
71
330
17
100
AcDbEntity
  8
CORTE
100
AcDbCircle
 10
985.0
 20
715.0
 30
0.0
 40
3.0
  0
LWPOLYLINE
  5
72
330
17
100
AcDbEntity
  8
CORTE
100
AcDbPolyline
 90
4
 70
1
 10
0.0
 20
900.0
 10
300.0
 20
900.0
 10
300.0
 20
912.0
 10
0.0
 20
912.0
  0
LWPOLYLINE
  5
73
330
17
100
AcDbEntity
  8
CORTE
100
AcDbPolyline
 90
4
 70
1
 10
350.0
 20
900.0
 10
650.0
 20
900.0
 10
650.0
 20
912.0
 10
350.0
 20
912.0
  0
LWPOLYLINE
  5
74
330
17
100
AcDbEntity
  8
CORTE
100
AcDbPolyline
 90
4
 70
1
 10
0.0
 20
930.0
 10
300.0
 20
930.0
 10
300.0
 20
942.0
 10
0.0
 20
942.0
  0
LWPOLYLINE
  5
75
330
17
100
AcDbEntity
  8
CORTE
100
AcDbPolyline
 90
4
 70
1
 10
350.0
 20
930.0
 10
650.0
 20
930.0
 10
650.0
 20
942.0
 10
350.0
 20
942.0
  0
LWPOLYLINE
  5
76
330
17
100
AcDbEntity
  8
CORTE
100
AcDbPolyline
 90
4
 70
1
 10
0.0
 20
960.0
 10
300.0
 20
960.0
 10
300.0
 20
972.0
 10
0.0
 20
972.0
  0
LWPOLYLINE
  5
77
330
17
100
AcDbEntity
  8
CORTE
100
AcDbPolyline
 90
4
 70
1
 10
350.0
 20
960.0
 10
650.0
 20
960.0
 10
650.0
 20
972.0
 10
350.0
 20
972.0
  0
LWPOLYLINE
  5
78
330
17
100
AcDbEntity
  8
CORTE
100
AcDbPolyline
 90
6
 70
1
 10
1150.0
 20
0.0
 10
1250.0
 20
0.0
 10
1250.0
 20
25.0
 10
1175.0
 20
25.0
 10
1175.0
 20
70.0
 10
1150.0
 20
70.0
  0
LWPOLYLINE
  5
79
330
17
100
AcDbEntity
  8
CORTE
100
AcDbPolyline
 90
6
 70
1
 10
1270.0
 20
90.0
 10
1370.0
 20
90.0
 10
1370.0
 20
115.0
 10
1295.0
 20
115.0
 10
1295.0
 20
160.0
 10
1270.0
 20
160.0
  0
LWPOLYLINE
  5
7A
330
17
100
AcDbEntity
  8
CORTE
100
AcDbPolyline
 90
6
 70
1
 10
1150.0
 20
180.0
 10
1250.0
 20
180.0
 10
1250.0
 20
205.0
 10
1175.0
 20
205.0
 10
1175.0
 20
250.0
 10
1150.0
 20
250.0
  0
LWPOLYLINE
  5
7B
330
17
100
AcDbEntity
  8
CORTE
100
AcDbPolyline
 90
6
 70
1
 10
1270.0
 20
270.0
 10
1370.0
 20
270.0
 10
1370.0
 20
295.0
 10
1295.0
 20
295.0
 10
1295.0
 20
340.0
 10
1270.0
 20
340.0
  0
LWPOLYLINE
  5
7C
330
17
100
AcDbEntity
  8
CORTE
100
AcDbPolyline
 90
6
 70
1
 10
1150.0
 20
360.0
 10
1250.0
 20
360.0
 10
1250.0
 20
385.0
 10
1175.0
 20
385.0
 10
1175.0
 20
430.0
 10
1150.0
 20
430.0
  0
LWPOLYLINE
  5
7D
330
17
100
AcDbEntity
  8
CORTE
100
AcDbPolyline
 90
6
 70
1
 10
1270.0
 20
450.0
 10
1370.0
 20
450.0
 10
1370.0
 20
475.0
 10
1295.0
 20
475.0
 10
1295.0
 20
520.0
 10
1270.0
 20
520.0
  0
LWPOLYLINE
  5
7E
330
17
100
AcDbEntity
  8
CORTE
100
AcDbPolyline
 90
6
 70
1
 10
1150.0
 20
540.0
 10
1250.0
 20
540.0
 10
1250.0
 20
565.0
 10
1175.0
 20
565.0
 10
1175.0
 20
610.0
 10
1150.0
 20
610.0
  0
LWPOLYLINE
  5
7F
330
17
100
AcDbEntity
  8
CORTE
100
AcDbPolyline
 90
6
 70
1
 10
1270.0
 20
630.0
 10
1370.0
 20
630.0
 10
1370.0
 20
655.0
 10
1295.0
 20
655.0
 10
1295.0
 20
700.0
 10
1270.0
 20
700.0
  0
ENDSEC
  0
SECTION
  2
OBJECTS
  0
DICTIONARY
  5
A
330
0
100
AcDbDictionary
281
1
  3
ACAD_COLOR
350
B
  3
ACAD_GROUP
350
C
  3
ACAD_LAYOUT
350
D
  3
ACAD_MATERIAL
350
E
  3
ACAD_MLEADERSTYLE
350
F
  3
ACAD_MLINESTYLE
350
10
  3
ACAD_PLOTSETTINGS
350
11
  3
ACAD_PLOTSTYLENAME
350
12
  3
ACAD_SCALELIST
350
14
  3
ACAD_TABLESTYLE
350
15
  3
ACAD_VISUALSTYLE
350
16
  3
EZDXF_META
350
2D
  0
DICTIONARY
  5
B
330
A
100
AcDbDictionary
281
1
  0
DICTIONARY
  5
C
330
A
100
AcDbDictionary
281
1
  0
DICTIONARY
  5
D
330
A
100
AcDbDictionary
281
1
  3
Model
350
1A
  3
Layout1
350
1E
  0
DICTIONARY
  5
E
330
A
100
AcDbDictionary
281
1
  3
ByBlock
350
1F
  3
ByLayer
350
20
  3
Global
350
21
  0
DICTIONARY
  5
F
330
A
100
AcDbDictionary
281
1
  3
Standard
350
2C
  0
DICTIONARY
  5
10
330
A
100
AcDbDictionary
281
1
  3
Standard
350
22
  0
DICTIONARY
  5
11
330
A
100
AcDbDictionary
281
1
  0
ACDBDICTIONARYWDFLT
  5
12
330
A
100
AcDbDictionary
281
1
  3
Normal
350
13
100
AcDbDictionaryWithDefault
340
13
  0
ACDBPLACEHOLDER
  5
13
330
12
  0
DICTIONARY
  5
14
330
A
100
AcDbDictionary
281
1
  0
DICTIONARY
  5
15
330
A
100
AcDbDictionary
281
1
  0
DICTIONARY
  5
16
330
A
100
AcDbDictionary
281
1
  0
LAYOUT
  5
1A
330
D
100
AcDbPlotSettings
  1

  4
A3
  6

 40
7.5
 41
20.0
 42
7.5
 43
20.0
 44
420.0
 45
297.0
 46
0.0
 47
0.0
 48
0.0
 49
0.0
140
0.0
141
0.0
142
1.0
143
1.0
 70
1024
 72
1
 73
0
 74
5
  7

 75
16
 76
0
 77
2
 78
300
147
1.0
148
0.0
149
0.0
100
AcDbLayout
  1
Model
 70
1
 71
0
 10
0.0
 20
0.0
 11
420.0
 21
297.0
 12
0.0
 22
0.0
 32
0.0
 14
1e+20
 24
1e+20
 34
1e+20
 15
-1e+20
 25
-1e+20
 35
-1e+20
146
0.0
 13
0.0
 23
0.0
 33
0.0
 16
1.0
 26
0.0
 36
0.0
 17
0.0
 27
1.0
 37
0.0
 76
1
330
17
  0
LAYOUT
  5
1E
330
D
100
AcDbPlotSettings
  1

  4
A3
  6

 40
7.5
 41
20.0
 42
7.5
 43
20.0
 44
420.0
 45
297.0
 46
0.0
 47
0.0
 48
0.0
 49
0.0
140
0.0
141
0.0
142
1.0
143
1.0
 70
0
 72
1
 73
0
 74
5
  7

 75
16
 76
0
 77
2
 78
300
147
1.0
148
0.0
149
0.0
100
AcDbLayout
  1
Layout1
 70
1
 71
1
 10
0.0
 20
0.0
 11
420.0
 21
297.0
 12
0.0
 22
0.0
 32
0.0
 14
1e+20
 24
1e+20
 34
1e+20
 15
-1e+20
 25
-1e+20
 35
-1e+20
146
0.0
 13
0.0
 23
0.0
 33
0.0
 16
1.0
 26
0.0
 36
0.0
 17
0.0
 27
1.0
 37
0.0
 76
1
330
1B
  0
MATERIAL
  5
1F
102
{ACAD_REACTORS
330
E
102
}
330
E
100
AcDbMaterial
  1
ByBlock
  2

 70
0
 40
1.0
 71
1
 41
1.0
 91
-1023410177
 42
1.0
 72
1
  3

 73
1
 74
1
 75
1
 44
0.5
 73
0
 45
1.0
 46
1.0
 77
1
  4

 78
1
 79
1
170
1
 48
1.0
171
1
  6

172
1
173
1
174
1
140
1.0
141
1.0
175
1
  7

176
1
177
1
178
1
143
1.0
179
1
  8

270
1
271
1
272
1
145
1.0
146
1.0
273
1
  9

274
1
275
1
276
1
 42
1.0
 72
1
  3

 73
1
 74
1
 75
1
 94
63
  0
MATERIAL
  5
20
102
{ACAD_REACTORS
330
E
102
}
330
E
100
AcDbMaterial
  1
ByLayer
  2

 70
0
 40
1.0
 71
1
 41
1.0
 91
-1023410177
 42
1.0
 72
1
  3

 73
1
 74
1
 75
1
 44
0.5
 73
0
 45
1.0
 46
1.0
 77
1
  4

 78
1
 79
1
170
1
 48
1.0
171
1
  6

172
1
173
1
174
1
140
1.0
141
1.0
175
1
  7

176
1
177
1
178
1
143
1.0
179
1
  8

270
1
271
1
272
1
145
1.0
146
1.0
273
1
  9

274
1
275
1
276
1
 42
1.0
 72
1
  3

 73
1
 74
1
 75
1
 94
63
  0
MATERIAL
  5
21
102
{ACAD_REACTORS
330
E
102
}
330
E
100
AcDbMaterial
  1
Global
  2

 70
0
 40
1.0
 71
1
 41
1.0
 91
-1023410177
 42
1.0
 72
1
  3

 73
1
 74
1
 75
1
 44
0.5
 73
0
 45
1.0
 46
1.0
 77
1
  4

 78
1
 79
1
170
1
 48
1.0
171
1
  6

172
1
173
1
174
1
140
1.0
141
1.0
175
1
  7

176
1
177
1
178
1
143
1.0
179
1
  8

270
1
271
1
272
1
145
1.0
146
1.0
273
1
  9

274
1
275
1
276
1
 42
1.0
 72
1
  3

 73
1
 74
1
 75
1
 94
63
  0
MLINESTYLE
  5
22
102
{ACAD_REACTORS
330
10
102
}
330
10
100
AcDbMlineStyle
  2
Standard
 70
0
  3

 62
256
 51
90.0
 52
90.0
 71
2
 49
0.5
 62
256
  6
BYLAYER
 49
-0.5
 62
256
  6
BYLAYER
  0
MLEADERSTYLE
  5
2C
102
{ACAD_REACTORS
330
F
102
}
330
F
100
AcDbMLeaderStyle
179
2
170
2
171
1
172
0
 90
2
 40
0.0
 41
0.0
173
1
 91
-1056964608
 92
-2
290
1
 42
2.0
291
1
 43
8.0
  3
Standard
 44
4.0
300

342
29
174
1
175
1
176
0
178
1
 93
-1056964608
 45
4.0
292
0
297
0
 46
4.0
 94
-1056964608
 47
1.0
 49
1.0
140
1.0
294
1
141
0.0
177
0
142
1.0
295
0
296
0
143
3.75
271
0
272
9
273
9
  0
DICTIONARY
  5
2D
330
A
100
AcDbDictionary
280
1
281
1
  3
CREATED_BY_EZDXF
350
2E
  3
WRITTEN_BY_EZDXF
350
82
  0
DICTIONARYVAR
  5
2E
330
2D
100
DictionaryVariables
280
0
  1
1.4.4 @ 2026-10-02T14:48:42.460501+00:00
  0
DICTIONARYVAR
  5
82
330
2D
100
DictionaryVariables
280
0
  1
1.4.4 @ 2026-10-02T14:48:42.463697+00:00
  0
ENDSEC
  0
EOF
